<svg width="528" height="370" viewBox="0 0 528 370" fill="none" xmlns="http://www.w3.org/2000/svg">
<circle cx="361" cy="194" r="97" fill="#4238AF" fill-opacity="0.5"/>
<circle cx="219.5" cy="215.5" r="149.5" fill="#FF5C00" fill-opacity="0.5"/>
<circle cx="147.5" cy="346.5" r="23.5" fill="#F5F7FF"/>
<circle cx="192.5" cy="128.5" r="12.5" fill="#4238AF" fill-opacity="0.65"/>
<circle cx="451.5" cy="223.5" r="12.5" fill="#F5F7FF"/>
<circle cx="435.223" cy="120.223" r="32.8416" transform="rotate(-15 435.223 120.223)" fill="#F5F7FF"/>
<circle cx="361.5" cy="96.5" r="12.5" fill="#F5F7FF"/>
<circle cx="486" cy="52" r="8" fill="#FF5C00" fill-opacity="0.65"/>
<circle cx="100" cy="116" r="21" fill="#F5F7FF"/>
<circle cx="500" cy="346" r="21" fill="#4238AF" fill-opacity="0.65"/>
<circle cx="117" cy="285" r="11" fill="#FF5C00" fill-opacity="0.65"/>
<circle cx="95" cy="232" r="33" fill="#F5F7FF"/>
<circle cx="523.5" cy="132.5" r="4.5" fill="#4238AF" fill-opacity="0.65"/>
<circle cx="28" cy="321" r="11" fill="#4238AF" fill-opacity="0.65"/>
<circle cx="403.5" cy="190.5" r="8.5" fill="white" fill-opacity="0.65"/>
<circle cx="374.5" cy="149.5" r="8.5" fill="#FF5C00" fill-opacity="0.65"/>
<circle cx="17" cy="199" r="17" fill="#FF5C00" fill-opacity="0.65"/>
<circle cx="196" cy="31" r="13" fill="#FF5C00" fill-opacity="0.65"/>
<path d="M87.5856 106.127L73.127 81L48 95.4586L62.4587 120.586L87.5856 106.127Z" stroke="#4238AF" stroke-width="3"/>
<path d="M502.684 232.527L490.527 220L478 232.157L490.157 244.684L502.684 232.527Z" stroke="#FF5C00" stroke-width="3"/>
<path d="M368.491 49.43L323.43 3L277 48.0612L322.061 94.4912L368.491 49.43Z" stroke="#FF5C00" stroke-width="4"/>
</svg>
